<svg width="200" height="40" viewBox="0 0 200 40" fill="none" xmlns="http://www.w3.org/2000/svg">
  <!-- Sol -->
  <path d="M5.5 28.2C3.3 28.2 1.6 27.6 0.5 26.5L2.3 23.5C3.2 24.3 4.3 24.7 5.6 24.7C6.6 24.7 7.1 24.4 7.1 23.8C7.1 23.3 6.6 22.9 5.5 22.6L4.1 22.2C1.4 21.4 0 19.9 0 17.7C0 16.2 0.5 15 1.6 14.1C2.7 13.2 4.2 12.8 6 12.8C7.9 12.8 9.5 13.3 10.6 14.3L8.9 17.2C8.1 16.5 7.1 16.2 5.9 16.2C5 16.2 4.5 16.5 4.5 17C4.5 17.5 5 17.9 6 18.2L7.4 18.6C10.2 19.4 11.6 20.9 11.6 23.2C11.6 24.7 11.1 25.9 10 26.8C8.9 27.7 7.4 28.2 5.5 28.2Z" fill="white"/>
  <path d="M20.5 28.2C18.3 28.2 16.5 27.5 15.1 26.1C13.7 24.7 13 22.9 13 20.5C13 18.1 13.7 16.3 15.1 14.9C16.5 13.5 18.3 12.8 20.5 12.8C22.7 12.8 24.5 13.5 25.9 14.9C27.3 16.3 28 18.1 28 20.5C28 22.9 27.3 24.7 25.9 26.1C24.5 27.5 22.7 28.2 20.5 28.2ZM20.5 24.5C21.4 24.5 22.1 24.2 22.7 23.5C23.3 22.8 23.6 21.8 23.6 20.5C23.6 19.2 23.3 18.2 22.7 17.5C22.1 16.8 21.4 16.5 20.5 16.5C19.6 16.5 18.9 16.8 18.3 17.5C17.7 18.2 17.4 19.2 17.4 20.5C17.4 21.8 17.7 22.8 18.3 23.5C18.9 24.2 19.6 24.5 20.5 24.5Z" fill="white"/>
  <path d="M31 28V13H35.4V28H31Z" fill="white"/>
  <!-- Flo -->
  <path d="M46 28V13H58V16.5H50.4V19H57V22.5H50.4V28H46Z" fill="#00D26A"/>
  <path d="M60 28V13H64.4V24.5H72V28H60Z" fill="#00D26A"/>
  <path d="M80.5 28.2C78.3 28.2 76.5 27.5 75.1 26.1C73.7 24.7 73 22.9 73 20.5C73 18.1 73.7 16.3 75.1 14.9C76.5 13.5 78.3 12.8 80.5 12.8C82.7 12.8 84.5 13.5 85.9 14.9C87.3 16.3 88 18.1 88 20.5C88 22.9 87.3 24.7 85.9 26.1C84.5 27.5 82.7 28.2 80.5 28.2ZM80.5 24.5C81.4 24.5 82.1 24.2 82.7 23.5C83.3 22.8 83.6 21.8 83.6 20.5C83.6 19.2 83.3 18.2 82.7 17.5C82.1 16.8 81.4 16.5 80.5 16.5C79.6 16.5 78.9 16.8 78.3 17.5C77.7 18.2 77.4 19.2 77.4 20.5C77.4 21.8 77.7 22.8 78.3 23.5C78.9 24.2 79.6 24.5 80.5 24.5Z" fill="#00D26A"/>
  <!-- Lab -->
  <path d="M91 28V13H95.4V24.5H103V28H91Z" fill="white"/>
  <path d="M111.5 28.2C109.7 28.2 108.2 27.8 107 27L108.5 23.8C109.5 24.5 110.5 24.8 111.6 24.8C112.5 24.8 113 24.5 113 24C113 23.5 112.6 23.2 111.7 23L110.2 22.6C107.5 21.9 106.1 20.4 106.1 18.1C106.1 16.5 106.7 15.2 107.8 14.3C108.9 13.3 110.4 12.8 112.3 12.8C113.9 12.8 115.3 13.2 116.5 14L115 17.1C114.1 16.5 113.2 16.2 112.2 16.2C111.3 16.2 110.8 16.5 110.8 17C110.8 17.5 111.2 17.8 112.1 18.1L113.6 18.5C116.3 19.2 117.7 20.7 117.7 23C117.7 24.6 117.1 25.9 115.9 26.8C114.7 27.7 113.3 28.2 111.5 28.2Z" fill="white"/>
  <path d="M127 28.2C124.8 28.2 123 27.5 121.6 26.1C120.2 24.7 119.5 22.9 119.5 20.5C119.5 18.1 120.2 16.3 121.6 14.9C123 13.5 124.8 12.8 127 12.8C129.2 12.8 131 13.5 132.4 14.9C133.8 16.3 134.5 18.1 134.5 20.5C134.5 22.9 133.8 24.7 132.4 26.1C131 27.5 129.2 28.2 127 28.2ZM127 24.5C127.9 24.5 128.6 24.2 129.2 23.5C129.8 22.8 130.1 21.8 130.1 20.5C130.1 19.2 129.8 18.2 129.2 17.5C128.6 16.8 127.9 16.5 127 16.5C126.1 16.5 125.4 16.8 124.8 17.5C124.2 18.2 123.9 19.2 123.9 20.5C123.9 21.8 124.2 22.8 124.8 23.5C125.4 24.2 126.1 24.5 127 24.5Z" fill="white"/>
</svg>
